<svg width="184" height="100" viewBox="0 0 184 100" fill="none" xmlns="http://www.w3.org/2000/svg">
<g clip-path="url(#clip0_661_3710)">
<path d="M93.8869 11.2102C101.872 9.96677 112.573 13.3563 117.183 13.4789C120.254 13.5598 123.164 11.8798 124.021 10.3494C124.586 9.33891 124.735 8.52954 124.876 8.43389C125.017 8.33824 125.078 11.3157 124.971 12.3213C124.128 20.5056 124.245 28.018 116.986 36.1116C108.34 46.3831 92.5207 48.2643 80.3419 46.3561C74.2707 45.0955 70.7883 43.0525 69.5999 42.2382C68.4748 41.4681 66.5095 40.2271 67.223 39.6065C67.9366 38.9836 70.2184 36.8792 74.7797 34.3898C83.2131 29.5509 91.101 26.8113 98.2583 25.8229C98.2583 25.8229 101.039 25.5237 102.51 25.4403C107.5 25.1533 109.653 26.3159 109.653 26.3159C104.753 17.7195 87.4432 21.2144 79.9596 26.3036C75.6686 29.2222 72.566 31.3413 68.504 33.139C66.4608 33.9042 65.438 34.1176 65.4623 34.1053L68.504 30.8017L69.7387 29.0211C74.015 20.0225 86.659 11.6934 93.8821 11.2152L93.8869 11.2102Z" fill="#6D6E71"/>
<path d="M27.034 84.2477H4.72201C4.74149 86.2515 5.20419 88.0909 6.11012 89.7636C7.01604 91.4363 8.40415 92.822 10.2769 93.9183C11.4702 94.6173 12.8266 95.1422 14.3511 95.4929C15.8732 95.8436 17.7045 96.0178 19.8451 96.0178C21.0189 96.0178 22.0929 95.9883 23.0694 95.9319C24.046 95.8755 24.6475 95.8387 24.8739 95.8191L24.3187 99.5912C24.1531 99.6108 23.61 99.6427 22.6822 99.6918C21.7568 99.7384 20.6658 99.7629 19.4116 99.7629C16.1191 99.7629 13.2552 99.3705 10.8175 98.5857C8.3798 97.8008 6.378 96.7192 4.81455 95.3384C3.47758 94.1857 2.3403 92.7092 1.40516 90.9139C0.467574 89.1186 0 87.1222 0 84.9295C0 82.7369 0.35068 80.8263 1.04961 79.0874C1.74853 77.3485 2.79814 75.7323 4.19842 74.2362C5.41119 72.951 6.91863 71.9577 8.72074 71.2587C10.5204 70.5597 12.3883 70.209 14.3219 70.209C16.2555 70.209 17.9334 70.4739 19.4141 71.0036C20.8947 71.5334 22.1805 72.3354 23.2715 73.4145C24.4843 74.6261 25.4121 76.1149 26.0502 77.8807C26.6882 79.6491 27.017 81.7706 27.0365 84.2477H27.034ZM22.2512 81.0716C21.9224 78.7269 21.053 76.8874 19.643 75.5557C18.2329 74.2239 16.3773 73.5568 14.0735 73.5568C11.7697 73.5568 9.84584 74.2337 8.30187 75.5851C6.7579 76.9365 5.68881 78.7661 5.09217 81.074H22.2512V81.0716Z" fill="white"/>
<path d="M52.9625 83.0462C52.9625 87.7847 52.9527 91.6426 52.9308 94.625C52.9089 97.6049 52.8992 99.2114 52.8992 99.4395C52.6922 99.4591 51.7375 99.5302 50.028 99.6553C48.3208 99.7804 46.1194 99.8417 43.4235 99.8417C41.7358 99.8417 40.0385 99.6995 38.3313 99.4125C36.6242 99.1255 35.1533 98.716 33.9186 98.1813C32.2724 97.4749 30.9403 96.5086 29.9223 95.2872C28.9044 94.0658 28.3954 92.5942 28.3954 90.875C28.3954 89.06 28.9969 87.4879 30.1999 86.1611C31.403 84.8342 33.076 83.7575 35.2142 82.9359C36.5511 82.4208 38.3362 81.9573 40.5693 81.5453C42.8025 81.1357 45.3474 80.8242 48.2064 80.6133C48.0822 79.1221 47.6828 77.9007 47.0034 76.9442C46.3239 75.9901 45.3255 75.2641 44.0104 74.7662C43.1045 74.4229 42.0963 74.1776 40.9858 74.0354C39.8753 73.8931 38.5797 73.8195 37.0966 73.8195C36.1712 73.8195 35.3846 73.8392 34.7369 73.8759C34.0891 73.9152 33.2099 73.9618 32.0994 74.0182L32.5938 70.2068C32.9031 70.1872 33.5143 70.1553 34.43 70.1063C35.3457 70.0597 36.595 70.0352 38.1803 70.0352C40.6083 70.0352 42.7733 70.2682 44.6777 70.7366C46.5796 71.2051 48.1601 71.9654 49.4143 73.0151C50.5881 74.0084 51.4721 75.2371 52.0687 76.6989C52.6654 78.1607 52.9625 80.2773 52.9625 83.0462ZM48.2405 89.9528V87.4879C48.2405 86.4946 48.2307 85.3492 48.2088 84.0494C47.3029 84.0886 45.72 84.2554 43.4552 84.5497C41.1928 84.8465 39.2884 85.2708 37.7469 85.825C36.595 86.2273 35.5722 86.8282 34.676 87.6302C33.7822 88.4322 33.3341 89.4255 33.3341 90.6101C33.3341 91.91 33.714 92.9548 34.4763 93.747C35.2361 94.5392 36.276 95.1474 37.5934 95.5668C38.6016 95.893 39.717 96.126 40.9419 96.2683C42.1669 96.4105 43.4576 96.4841 44.814 96.4841C45.2256 96.4841 45.7297 96.4743 46.3263 96.4547C46.923 96.435 47.5513 96.4154 48.2088 96.3982C48.2088 96.2658 48.2137 95.6355 48.2234 94.5073C48.2332 93.3791 48.238 91.8609 48.238 89.9503L48.2405 89.9528Z" fill="white"/>
<path d="M58.0039 70.7837H62.0319V75.0316C63.2325 73.3565 64.5012 72.1057 65.8358 71.2767C67.1703 70.4477 68.5584 70.0332 70.005 70.0332C71.0935 70.0332 72.26 70.3619 73.4996 71.0216L71.4418 74.1757C70.6138 73.8372 69.9197 73.668 69.3572 73.668C68.0421 73.668 66.7733 74.1806 65.5533 75.2033C64.3332 76.2285 63.4029 77.8178 62.7649 79.9736C62.2754 81.6291 62.0319 84.9794 62.0319 90.022V99.8545H58.0039V70.7812V70.7837Z" fill="white"/>
<path d="M96.4371 96.1233L95.8818 99.7482C95.7382 99.7678 95.3826 99.785 94.8176 99.8046C94.2526 99.8243 93.7631 99.8341 93.3516 99.8341C89.1337 99.8341 85.9459 99.0198 83.7858 97.3937C81.6257 95.7652 80.5444 93.2684 80.5444 89.8986C80.5444 87.7869 80.5591 85.5206 80.5907 83.1048C80.6224 80.689 80.637 77.6895 80.637 74.1111H75.4523V70.7707H80.9146V64.0039H85.3907V70.7707H96.4395V74.1111H85.3907C85.3907 74.5109 85.376 75.7004 85.3444 77.6797C85.3127 79.6589 85.2981 81.1256 85.2981 82.0772V89.1579C85.2981 91.6325 86.019 93.4156 87.4582 94.5119C88.8975 95.6058 91.1209 96.1527 94.1236 96.1527C94.4937 96.1527 94.937 96.1478 95.4508 96.138C95.9646 96.1282 96.2934 96.1233 96.4371 96.1233Z" fill="white"/>
<path d="M126.761 99.9346H121.886C121.905 99.3606 121.932 97.6365 121.964 94.762C121.995 91.8876 122.01 89.9917 122.01 89.0744C122.01 88.0811 122.005 86.6144 121.995 84.6769C121.986 82.7393 121.969 81.3193 121.949 80.4216C121.888 78.2241 121.435 76.6495 120.59 75.693C119.745 74.7389 118.286 74.2607 116.207 74.2607C115.033 74.2607 113.533 74.5869 111.701 75.2417C109.87 75.8965 107.937 76.7819 105.901 77.9003L106.025 99.937H101.149C101.169 99.1914 101.196 96.187 101.227 90.9237C101.259 85.6604 101.274 81.3291 101.274 77.9273C101.274 75.7101 101.269 72.9166 101.259 69.5443C101.249 66.1719 101.213 62.2993 101.152 57.9238H106.027L105.903 74.2288L105.935 74.2582C108.877 72.7302 111.285 71.6707 113.155 71.0772C115.028 70.4861 116.633 70.1893 117.97 70.1893C120.602 70.1893 122.716 70.9594 124.311 72.4948C125.906 74.0326 126.703 76.1394 126.703 78.8127C126.703 81.2187 126.688 83.2985 126.657 85.0448C126.625 86.7935 126.61 88.2111 126.61 89.3001C126.61 91.039 126.63 93.0354 126.671 95.2893C126.713 97.5433 126.742 99.0909 126.764 99.9321L126.761 99.9346Z" fill="white"/>
<path d="M153.562 98.5086C152.076 99.21 149.115 99.9704 145.552 99.9704C136.656 99.9704 130.921 94.2779 130.921 85.4951C130.921 76.7123 136.727 70.4336 146.709 70.4336C149.361 70.4336 151.998 71.01 153.64 71.7237L152.366 77.1047C151.212 76.543 149.492 75.9986 146.938 75.9986C141.463 75.9986 138.222 79.989 138.246 85.1762C138.246 90.9816 142.07 94.3097 146.962 94.3097C149.419 94.3097 151.197 93.7775 152.597 93.1938L153.562 98.5086Z" fill="white"/>
<path d="M184 84.932C184 95.336 176.677 100.001 169.42 100.001C161.413 100.001 155.218 94.4898 155.218 85.4201C155.218 76.3503 161.35 70.4199 169.903 70.4199C178.455 70.4199 184 76.3528 184 84.932ZM162.597 85.2386C162.597 90.6858 165.322 94.8013 169.654 94.8013C173.986 94.8013 176.626 90.8403 176.626 85.1454C176.626 80.6964 174.654 75.6195 169.7 75.6195C164.747 75.6195 162.597 80.5222 162.597 85.241V85.2386Z" fill="white"/>
<path d="M65.57 29.6117C71.9577 12.0239 84.112 3.0888 104.417 6.28948C107.425 6.77447 109.14 7.17803 110.492 7.49628L110.496 7.49737C112.211 7.90146 113.342 8.16794 115.795 8.28851C120.661 8.64494 122.852 6.8336 125.47 4.66966L126.113 4.14105C126.468 3.85198 126.576 3.96966 126.754 4.84759C127.825 10.1181 127.657 17.412 126.131 23.7128C123.178 34.7743 116.952 42.3725 106.419 46.6816C92.6032 52.1386 72.7995 51.4741 63.0026 41.1708C62.9113 41.0748 62.8266 40.9867 62.7484 40.9054C62.3625 40.504 62.1365 40.269 62.0739 40.0738L60.641 38.641C59.2216 39.1012 57.8629 39.3517 56.7809 39.476C56.2282 39.5468 56.1276 39.4638 56.0837 38.9291C56.0446 38.3827 56.0368 37.874 56.029 37.3486C56.0241 36.978 56.0182 36.5986 56.0016 36.1918C55.987 35.9047 56.0651 35.5297 56.4733 35.4755C61.0641 35.2822 64.4391 32.2997 65.57 29.6117Z" fill="white" stroke="white" stroke-width="6"/>
<path d="M93.5315 11.2102C101.517 9.96677 112.217 13.3563 116.827 13.4789C119.898 13.5598 122.808 11.8798 123.666 10.3494C124.231 9.33891 124.379 8.52954 124.52 8.43389C124.662 8.33824 124.723 11.3157 124.615 12.3213C123.773 20.5056 123.89 28.018 116.63 36.1116C107.985 46.3831 92.1653 48.2643 79.9864 46.3561C73.9153 45.0955 70.4328 43.0525 69.2444 42.2382C68.1193 41.4681 66.154 40.2271 66.8676 39.6065C67.5811 38.9836 69.863 36.8792 74.4243 34.3898C82.8576 29.5509 90.7455 26.8113 97.9028 25.8229C97.9028 25.8229 100.684 25.5237 102.155 25.4403C107.145 25.1533 109.297 26.3159 109.297 26.3159C104.398 17.7195 87.0877 21.2144 79.6041 26.3036C75.3131 29.2222 72.2106 31.3413 68.1485 33.139C66.1053 33.9042 65.0825 34.1176 65.1069 34.1053L68.1485 30.8017L69.3832 29.0211C73.6596 20.0225 86.3035 11.6934 93.5266 11.2152L93.5315 11.2102Z" fill="#7A9A01"/>
<path d="M65.5698 29.6116C71.9576 12.0239 84.1121 3.0891 104.417 6.28975C111.248 7.39097 111.409 8.0728 115.795 8.28863C121.053 8.67368 123.189 6.52765 126.113 4.14126C126.469 3.85186 126.576 3.96958 126.754 4.84762C127.825 10.1183 127.657 17.4123 126.13 23.7131C123.179 34.7743 116.952 42.3725 106.419 46.6818C92.6039 52.1388 72.8002 51.4741 63.0031 41.1707C61.8901 40.0008 61.7489 40.0008 62.628 39.2675C62.8618 39.0713 67.9053 35.0196 72.9293 32.0372C80.4275 27.3307 91.5007 23.355 99.1645 23.5586C100.056 23.5831 100.662 23.5095 100.626 23.9534C100.555 24.8388 100.45 25.8444 100.411 26.4428C100.353 27.3527 100.394 27.2963 99.6808 27.3135C90.1856 27.2399 79.3462 32.2482 71.9308 37.097C70.2675 38.1786 68.3655 39.5815 68.2048 39.736C67.8493 40.0769 67.6691 40.3099 68.6139 40.9574C73.4991 44.6363 84.4603 46.8829 92.8352 46.0539C101.894 45.1562 112.028 41.1977 117.716 33.2562C121.995 26.4355 123.581 19.2861 123.527 12.3624C123.508 10.0349 123.573 10.8344 122.236 11.2906C120.714 11.9258 118.659 12.2471 117.271 12.2349C115.418 12.2177 113.221 12.0485 110.267 11.4083C105.365 10.3488 103.083 9.93187 99.9463 9.67435C96.8096 9.41682 94.4376 9.22062 90.6776 9.92451C80.6808 11.8743 75.4352 17.1867 71.6897 25.0743C68.687 31.0586 69.1838 33.4892 64.1939 37.0038C61.6807 38.5955 58.7657 39.2479 56.7809 39.476C56.2281 39.5471 56.1283 39.4637 56.0844 38.9291C56.0162 37.9971 56.043 37.1754 56.0016 36.1919C55.987 35.905 56.0649 35.5297 56.4741 35.4758C61.0646 35.282 64.4399 32.2997 65.565 29.6067L65.5698 29.6116Z" fill="#43291C"/>
</g>
<defs>
<clipPath id="clip0_661_3710">
<rect width="184" height="100" fill="white"/>
</clipPath>
</defs>
</svg>
